<mxfile host="app.diagrams.net" modified="2021-11-15T11:42:21.817Z" agent="5.0 (Windows NT 10.0; Win64; x64) AppleWebKit/537.36 (KHTML, like Gecko) Chrome/95.0.4638.69 Safari/537.36" etag="TL6Fk9lGf6VjrNoUcwzd" version="15.7.3" type="github">
  <diagram id="8r4o4pIf5cSZgV8baqWr" name="Page-1">
    <mxGraphModel dx="782" dy="436" grid="1" gridSize="10" guides="1" tooltips="1" connect="1" arrows="1" fold="1" page="1" pageScale="1" pageWidth="850" pageHeight="1100" math="0" shadow="0">
      <root>
        <mxCell id="0" />
        <mxCell id="1" parent="0" />
        <mxCell id="iecPSXyMF5r6UUi80O0l-3" value="" style="edgeStyle=orthogonalEdgeStyle;rounded=0;orthogonalLoop=1;jettySize=auto;html=1;" edge="1" parent="1" source="iecPSXyMF5r6UUi80O0l-1" target="iecPSXyMF5r6UUi80O0l-2">
          <mxGeometry relative="1" as="geometry" />
        </mxCell>
        <mxCell id="iecPSXyMF5r6UUi80O0l-1" value="start" style="ellipse;whiteSpace=wrap;html=1;" vertex="1" parent="1">
          <mxGeometry x="300" y="20" width="120" height="80" as="geometry" />
        </mxCell>
        <mxCell id="iecPSXyMF5r6UUi80O0l-51" value="" style="edgeStyle=orthogonalEdgeStyle;rounded=0;orthogonalLoop=1;jettySize=auto;html=1;" edge="1" parent="1" source="iecPSXyMF5r6UUi80O0l-2" target="iecPSXyMF5r6UUi80O0l-47">
          <mxGeometry relative="1" as="geometry" />
        </mxCell>
        <mxCell id="iecPSXyMF5r6UUi80O0l-2" value="Generate a random number" style="rounded=1;whiteSpace=wrap;html=1;" vertex="1" parent="1">
          <mxGeometry x="300" y="140" width="120" height="60" as="geometry" />
        </mxCell>
        <mxCell id="iecPSXyMF5r6UUi80O0l-44" value="" style="edgeStyle=orthogonalEdgeStyle;rounded=0;orthogonalLoop=1;jettySize=auto;html=1;" edge="1" parent="1" source="iecPSXyMF5r6UUi80O0l-4" target="iecPSXyMF5r6UUi80O0l-13">
          <mxGeometry relative="1" as="geometry" />
        </mxCell>
        <mxCell id="iecPSXyMF5r6UUi80O0l-4" value="Take input from user." style="rounded=1;whiteSpace=wrap;html=1;" vertex="1" parent="1">
          <mxGeometry x="300" y="430" width="120" height="60" as="geometry" />
        </mxCell>
        <mxCell id="iecPSXyMF5r6UUi80O0l-17" style="edgeStyle=orthogonalEdgeStyle;rounded=0;orthogonalLoop=1;jettySize=auto;html=1;entryX=0.5;entryY=0;entryDx=0;entryDy=0;exitX=0;exitY=0.5;exitDx=0;exitDy=0;" edge="1" parent="1" source="iecPSXyMF5r6UUi80O0l-13" target="iecPSXyMF5r6UUi80O0l-16">
          <mxGeometry relative="1" as="geometry" />
        </mxCell>
        <mxCell id="iecPSXyMF5r6UUi80O0l-20" value="" style="edgeStyle=orthogonalEdgeStyle;rounded=0;orthogonalLoop=1;jettySize=auto;html=1;entryX=0.5;entryY=0;entryDx=0;entryDy=0;" edge="1" parent="1" source="iecPSXyMF5r6UUi80O0l-13" target="iecPSXyMF5r6UUi80O0l-22">
          <mxGeometry relative="1" as="geometry">
            <mxPoint x="530" y="565" as="targetPoint" />
          </mxGeometry>
        </mxCell>
        <mxCell id="iecPSXyMF5r6UUi80O0l-13" value="if user number&lt;br&gt;=&amp;nbsp;&lt;br&gt;random number" style="rhombus;whiteSpace=wrap;html=1;" vertex="1" parent="1">
          <mxGeometry x="290" y="510" width="140" height="110" as="geometry" />
        </mxCell>
        <mxCell id="iecPSXyMF5r6UUi80O0l-16" value="User guessed correct! User wins" style="rounded=1;whiteSpace=wrap;html=1;" vertex="1" parent="1">
          <mxGeometry x="170" y="610" width="120" height="60" as="geometry" />
        </mxCell>
        <mxCell id="iecPSXyMF5r6UUi80O0l-18" value="YES" style="text;html=1;align=center;verticalAlign=middle;resizable=0;points=[];autosize=1;strokeColor=none;fillColor=none;" vertex="1" parent="1">
          <mxGeometry x="240" y="540" width="40" height="20" as="geometry" />
        </mxCell>
        <mxCell id="iecPSXyMF5r6UUi80O0l-21" value="NO" style="text;html=1;align=center;verticalAlign=middle;resizable=0;points=[];autosize=1;strokeColor=none;fillColor=none;" vertex="1" parent="1">
          <mxGeometry x="455" y="540" width="30" height="20" as="geometry" />
        </mxCell>
        <mxCell id="iecPSXyMF5r6UUi80O0l-25" style="edgeStyle=orthogonalEdgeStyle;rounded=0;orthogonalLoop=1;jettySize=auto;html=1;entryX=0.5;entryY=0;entryDx=0;entryDy=0;" edge="1" parent="1" source="iecPSXyMF5r6UUi80O0l-22" target="iecPSXyMF5r6UUi80O0l-24">
          <mxGeometry relative="1" as="geometry" />
        </mxCell>
        <mxCell id="iecPSXyMF5r6UUi80O0l-28" style="edgeStyle=orthogonalEdgeStyle;rounded=0;orthogonalLoop=1;jettySize=auto;html=1;entryX=0.5;entryY=0;entryDx=0;entryDy=0;" edge="1" parent="1" source="iecPSXyMF5r6UUi80O0l-22" target="iecPSXyMF5r6UUi80O0l-27">
          <mxGeometry relative="1" as="geometry" />
        </mxCell>
        <mxCell id="iecPSXyMF5r6UUi80O0l-22" value="if chances &lt;br&gt;exhasted" style="rhombus;whiteSpace=wrap;html=1;" vertex="1" parent="1">
          <mxGeometry x="530" y="680" width="110" height="100" as="geometry" />
        </mxCell>
        <mxCell id="iecPSXyMF5r6UUi80O0l-23" value="subract chances by one" style="rounded=1;whiteSpace=wrap;html=1;" vertex="1" parent="1">
          <mxGeometry x="525" y="590" width="120" height="60" as="geometry" />
        </mxCell>
        <mxCell id="iecPSXyMF5r6UUi80O0l-24" value="Game Over! User loses" style="rounded=1;whiteSpace=wrap;html=1;" vertex="1" parent="1">
          <mxGeometry x="365" y="760" width="120" height="60" as="geometry" />
        </mxCell>
        <mxCell id="iecPSXyMF5r6UUi80O0l-26" value="YES" style="text;html=1;align=center;verticalAlign=middle;resizable=0;points=[];autosize=1;strokeColor=none;fillColor=none;" vertex="1" parent="1">
          <mxGeometry x="460" y="710" width="40" height="20" as="geometry" />
        </mxCell>
        <mxCell id="iecPSXyMF5r6UUi80O0l-30" style="edgeStyle=orthogonalEdgeStyle;rounded=0;orthogonalLoop=1;jettySize=auto;html=1;entryX=0.5;entryY=0;entryDx=0;entryDy=0;" edge="1" parent="1" source="iecPSXyMF5r6UUi80O0l-27" target="iecPSXyMF5r6UUi80O0l-29">
          <mxGeometry relative="1" as="geometry" />
        </mxCell>
        <mxCell id="iecPSXyMF5r6UUi80O0l-34" style="edgeStyle=orthogonalEdgeStyle;rounded=0;orthogonalLoop=1;jettySize=auto;html=1;entryX=0.5;entryY=0;entryDx=0;entryDy=0;exitX=1;exitY=0.5;exitDx=0;exitDy=0;" edge="1" parent="1" source="iecPSXyMF5r6UUi80O0l-27" target="iecPSXyMF5r6UUi80O0l-33">
          <mxGeometry relative="1" as="geometry" />
        </mxCell>
        <mxCell id="iecPSXyMF5r6UUi80O0l-27" value="if number &amp;gt;&amp;nbsp;&lt;br&gt;random &lt;br&gt;number" style="rhombus;whiteSpace=wrap;html=1;" vertex="1" parent="1">
          <mxGeometry x="670" y="760" width="110" height="100" as="geometry" />
        </mxCell>
        <mxCell id="iecPSXyMF5r6UUi80O0l-35" style="edgeStyle=orthogonalEdgeStyle;rounded=0;orthogonalLoop=1;jettySize=auto;html=1;entryX=1;entryY=0.5;entryDx=0;entryDy=0;" edge="1" parent="1" source="iecPSXyMF5r6UUi80O0l-29" target="iecPSXyMF5r6UUi80O0l-4">
          <mxGeometry relative="1" as="geometry">
            <mxPoint x="720" y="1000" as="targetPoint" />
            <Array as="points">
              <mxPoint x="720" y="880" />
              <mxPoint x="720" y="970" />
              <mxPoint x="930" y="970" />
              <mxPoint x="930" y="460" />
            </Array>
          </mxGeometry>
        </mxCell>
        <mxCell id="iecPSXyMF5r6UUi80O0l-29" value="Print Too High" style="rounded=1;whiteSpace=wrap;html=1;" vertex="1" parent="1">
          <mxGeometry x="510" y="850" width="120" height="60" as="geometry" />
        </mxCell>
        <mxCell id="iecPSXyMF5r6UUi80O0l-31" value="Yes" style="text;html=1;align=center;verticalAlign=middle;resizable=0;points=[];autosize=1;strokeColor=none;fillColor=none;" vertex="1" parent="1">
          <mxGeometry x="615" y="780" width="30" height="20" as="geometry" />
        </mxCell>
        <mxCell id="iecPSXyMF5r6UUi80O0l-32" value="NO" style="text;html=1;align=center;verticalAlign=middle;resizable=0;points=[];autosize=1;strokeColor=none;fillColor=none;" vertex="1" parent="1">
          <mxGeometry x="675" y="710" width="30" height="20" as="geometry" />
        </mxCell>
        <mxCell id="iecPSXyMF5r6UUi80O0l-33" value="Print Too Low" style="rounded=1;whiteSpace=wrap;html=1;" vertex="1" parent="1">
          <mxGeometry x="790" y="850" width="120" height="60" as="geometry" />
        </mxCell>
        <mxCell id="iecPSXyMF5r6UUi80O0l-38" value="" style="endArrow=none;html=1;rounded=0;entryX=0;entryY=0.5;entryDx=0;entryDy=0;" edge="1" parent="1" target="iecPSXyMF5r6UUi80O0l-33">
          <mxGeometry width="50" height="50" relative="1" as="geometry">
            <mxPoint x="720" y="880" as="sourcePoint" />
            <mxPoint x="620" y="890" as="targetPoint" />
          </mxGeometry>
        </mxCell>
        <mxCell id="iecPSXyMF5r6UUi80O0l-45" style="edgeStyle=orthogonalEdgeStyle;rounded=0;orthogonalLoop=1;jettySize=auto;html=1;entryX=0.5;entryY=0;entryDx=0;entryDy=0;" edge="1" parent="1" source="iecPSXyMF5r6UUi80O0l-47" target="iecPSXyMF5r6UUi80O0l-48">
          <mxGeometry relative="1" as="geometry" />
        </mxCell>
        <mxCell id="iecPSXyMF5r6UUi80O0l-46" style="edgeStyle=orthogonalEdgeStyle;rounded=0;orthogonalLoop=1;jettySize=auto;html=1;entryX=0.5;entryY=0;entryDx=0;entryDy=0;" edge="1" parent="1" source="iecPSXyMF5r6UUi80O0l-47" target="iecPSXyMF5r6UUi80O0l-49">
          <mxGeometry relative="1" as="geometry" />
        </mxCell>
        <mxCell id="iecPSXyMF5r6UUi80O0l-47" value="easy or hard" style="rhombus;whiteSpace=wrap;html=1;" vertex="1" parent="1">
          <mxGeometry x="320" y="240" width="80" height="80" as="geometry" />
        </mxCell>
        <mxCell id="iecPSXyMF5r6UUi80O0l-54" style="edgeStyle=orthogonalEdgeStyle;rounded=0;orthogonalLoop=1;jettySize=auto;html=1;entryX=0.5;entryY=0;entryDx=0;entryDy=0;" edge="1" parent="1" source="iecPSXyMF5r6UUi80O0l-48" target="iecPSXyMF5r6UUi80O0l-4">
          <mxGeometry relative="1" as="geometry">
            <Array as="points">
              <mxPoint x="240" y="400" />
              <mxPoint x="360" y="400" />
            </Array>
          </mxGeometry>
        </mxCell>
        <mxCell id="iecPSXyMF5r6UUi80O0l-48" value="easy: 10 chances" style="rounded=1;whiteSpace=wrap;html=1;" vertex="1" parent="1">
          <mxGeometry x="180" y="320" width="120" height="60" as="geometry" />
        </mxCell>
        <mxCell id="iecPSXyMF5r6UUi80O0l-55" style="edgeStyle=orthogonalEdgeStyle;rounded=0;orthogonalLoop=1;jettySize=auto;html=1;" edge="1" parent="1" source="iecPSXyMF5r6UUi80O0l-49">
          <mxGeometry relative="1" as="geometry">
            <mxPoint x="360" y="430" as="targetPoint" />
            <Array as="points">
              <mxPoint x="500" y="400" />
              <mxPoint x="360" y="400" />
            </Array>
          </mxGeometry>
        </mxCell>
        <mxCell id="iecPSXyMF5r6UUi80O0l-49" value="Hard: 5 chances" style="rounded=1;whiteSpace=wrap;html=1;" vertex="1" parent="1">
          <mxGeometry x="440" y="320" width="120" height="60" as="geometry" />
        </mxCell>
      </root>
    </mxGraphModel>
  </diagram>
</mxfile>
